<svg width="13" height="13" viewBox="0 0 13 13" fill="none" xmlns="http://www.w3.org/2000/svg">
<path d="M5.39141 2.13571C5.79375 1.2881 6.95625 1.2881 7.35859 2.1357L8.05395 3.60059C8.21372 3.93717 8.52255 4.17047 8.87981 4.22444L10.4347 4.45935C11.3343 4.59527 11.6936 5.74477 11.0426 6.40454L9.91746 7.5448C9.65894 7.80679 9.54098 8.18427 9.60201 8.55421L9.86761 10.1643C10.0213 11.0959 9.08081 11.8063 8.27612 11.3665L6.88541 10.6063C6.56587 10.4316 6.18413 10.4316 5.86459 10.6063L4.47388 11.3665C3.6692 11.8063 2.72871 11.0959 2.88239 10.1643L3.14799 8.55421C3.20902 8.18427 3.09106 7.80679 2.83254 7.5448L1.70744 6.40454C1.05643 5.74477 1.41566 4.59527 2.31533 4.45935L3.87019 4.22444C4.22744 4.17047 4.53628 3.93717 4.69605 3.60059L5.39141 2.13571Z" fill="#FFC000"/>
</svg>
